<svg width="104.000000" height="24.000000" viewBox="0 0 104 24" fill="none" xmlns="http://www.w3.org/2000/svg" xmlns:xlink="http://www.w3.org/1999/xlink">
	<desc>
			Created with Pixso.
	</desc>
	<defs/>
	<path id="facebook-logo" d="M22.675 0L1.32495 0C0.593018 0 0 0.592999 0 1.325L0 22.676C0 23.407 0.593018 24 1.32495 24L12.8201 24L12.8201 14.706L9.69189 14.706L9.69189 11.084L12.8201 11.084L12.8201 8.413C12.8201 5.313 14.7129 3.625 17.479 3.625C18.804 3.625 19.9419 3.724 20.2739 3.768L20.2739 7.008L18.356 7.009C16.8521 7.009 16.561 7.724 16.561 8.772L16.561 11.085L20.1479 11.085L19.6809 14.707L16.561 14.707L16.561 24L22.677 24C23.407 24 24 23.407 24 22.675L24 1.325C24 0.592999 23.407 0 22.675 0Z" fill="#FFFFFF" fill-opacity="1.000000" fill-rule="nonzero"/>
	<path id="pinterest-logo" d="M52 0C45.373 0 40 5.372 40 12C40 17.084 43.1631 21.426 47.627 23.174C47.522 22.225 47.427 20.769 47.6689 19.733C47.887 18.796 49.0759 13.768 49.0759 13.768C49.0759 13.768 48.717 13.049 48.717 11.986C48.717 10.318 49.6841 9.072 50.8879 9.072C51.9109 9.072 52.406 9.841 52.406 10.762C52.406 11.791 51.751 13.33 51.4121 14.757C51.1289 15.951 52.011 16.926 53.189 16.926C55.322 16.926 56.9609 14.677 56.9609 11.431C56.9609 8.558 54.897 6.549 51.949 6.549C48.5349 6.549 46.531 9.11 46.531 11.756C46.531 12.787 46.928 13.894 47.4241 14.494C47.522 14.613 47.5359 14.718 47.5071 14.839L47.1741 16.199C47.1211 16.419 47 16.466 46.772 16.36C45.2729 15.662 44.3359 13.471 44.3359 11.711C44.3359 7.926 47.0859 4.449 52.2649 4.449C56.428 4.449 59.6631 7.416 59.6631 11.38C59.6631 15.516 57.0559 18.844 53.436 18.844C52.22 18.844 51.0769 18.213 50.686 17.466L49.938 20.319C49.667 21.362 48.936 22.669 48.446 23.465C49.5701 23.812 50.7629 24 52 24C58.627 24 64 18.627 64 12C64 5.372 58.627 0 52 0Z" fill="#FFFFFF" fill-opacity="1.000000" fill-rule="nonzero"/>
	<path id="twitter-logo" d="M104 4.55704C103.117 4.94905 102.168 5.21304 101.172 5.33205C102.189 4.72305 102.97 3.75805 103.337 2.60805C102.386 3.17205 101.332 3.58205 100.21 3.80305C99.313 2.84605 98.032 2.24805 96.616 2.24805C93.437 2.24805 91.1011 5.21405 91.8191 8.29305C87.728 8.08804 84.1001 6.12804 81.6709 3.14905C80.3811 5.36205 81.002 8.25705 83.1941 9.72305C82.3879 9.69704 81.6279 9.47604 80.9651 9.10705C80.9109 11.388 82.5459 13.522 84.9141 13.997C84.2209 14.185 83.4619 14.229 82.6899 14.081C83.3159 16.037 85.134 17.46 87.29 17.5C85.22 19.123 82.6121 19.848 80 19.54C82.179 20.937 84.7681 21.752 87.5481 21.752C96.6899 21.752 101.855 14.031 101.543 7.10605C102.505 6.41105 103.34 5.54404 104 4.55704Z" fill="#FFFFFF" fill-opacity="1.000000" fill-rule="nonzero"/>
</svg>
