<svg width="56.000000" height="56.000000" viewBox="0 0 56 56" fill="none" xmlns="http://www.w3.org/2000/svg" xmlns:xlink="http://www.w3.org/1999/xlink">
	<desc>
			Created with Pixso.
	</desc>
	<defs/>
	<circle id="Oval" cx="28.000000" cy="28.000000" r="28.000000" fill="#F67E7E" fill-opacity="1.000000"/>
	<circle id="Oval" cx="28.000000" cy="28.000000" r="28.000000" stroke="#979797" stroke-opacity="0" stroke-width="0.000000"/>
	<mask id="mask_0_3850" fill="white">
		<path id="Combined Shape" d="M30 20L26 20L26 26L20 26L20 30L26 30L26 36L30 36L30 30L36 30L36 26L30 26L30 20Z" clip-rule="evenodd" fill="" fill-opacity="1.000000" fill-rule="evenodd"/>
	</mask>
	<path id="Combined Shape" d="M30 20L26 20L26 26L20 26L20 30L26 30L26 36L30 36L30 30L36 30L36 26L30 26L30 20Z" clip-rule="evenodd" fill="#012F34" fill-opacity="1.000000" fill-rule="evenodd" mask="url(#mask_0_3850)"/>
	<path id="Combined Shape" d="" fill="#979797" fill-opacity="0.000000" fill-rule="nonzero"/>
</svg>
