<svg width="159.946777" height="40.000000" viewBox="0 0 159.947 40" fill="none" xmlns="http://www.w3.org/2000/svg" xmlns:xlink="http://www.w3.org/1999/xlink">
	<desc>
			Created with Pixso.
	</desc>
	<defs/>
	<path id="myteam" d="M6.21362 18.2366L6.21362 29.5312L0 29.5312L0 8.19196L6.21362 8.19196L6.21362 11.2946C6.72241 10.1935 7.44922 9.32291 8.3938 8.68304Q9.2644 8.16106 10.2058 7.9368Q10.9148 7.76785 11.6643 7.76786Q14.8901 7.76785 16.7544 9.36115Q17.7502 10.2122 18.3577 11.5179Q19.7864 9.14948 21.8521 8.25929Q23.0962 7.72321 24.5713 7.72321Q27.4846 7.72321 29.3767 9.11335Q30.0332 9.59575 30.5669 10.2455Q32.6382 12.7679 32.6382 17.4107L32.6382 29.5312L26.4897 29.5312L26.4897 18.1473C26.4897 16.8378 26.1772 15.8036 25.5522 15.0446Q25.1426 14.5691 24.6262 14.2922Q23.9065 13.9062 22.9797 13.9062Q21.9448 13.9062 21.1772 14.3592Q20.7644 14.6029 20.4287 14.9777C19.7893 15.692 19.4695 16.7783 19.4695 18.2366L19.4695 29.5312L13.2559 29.5312L13.2559 18.0134C13.1978 16.7336 12.8562 15.7292 12.2312 15Q11.8186 14.5297 11.3015 14.2617Q10.6157 13.9062 9.74561 13.9062Q8.85889 13.9062 8.14893 14.2604Q7.63672 14.5158 7.21655 14.9554Q6.21362 16.0045 6.21362 18.2366ZM57.498 8.19196L44.6348 40L38.0723 40L43.0867 27.3438L35.0417 8.19196L41.6477 8.19196L46.248 20.2902L50.8921 8.19196L57.498 8.19196ZM68.3174 13.2143L68.3174 29.5312L62.1475 29.5312L62.1475 13.2143L58.3538 13.2143L58.3538 8.19196L62.1475 8.19196L62.1475 0L68.3174 0L68.3174 8.19196L72.6997 8.19196L72.6997 13.2143L68.3174 13.2143ZM95.2922 25.6473C93.3591 28.5491 90.1833 29.9926 85.7646 29.9777C82.6978 29.9777 80.1106 28.9435 78.0029 26.875C75.9246 24.7768 74.8853 22.0833 74.8853 18.7946C74.8853 15.506 75.9246 12.8348 78.0029 10.7812C80.0815 8.72768 82.6543 7.70834 85.7209 7.72321Q88.4146 7.72321 90.5776 8.79461Q92.1086 9.55299 93.3735 10.8482C95.4084 12.9315 96.4333 15.6399 96.4478 18.9732C96.4478 19.003 96.4187 19.6577 96.3606 20.9375L81.0771 20.9375C81.1934 22.0685 81.7603 22.9464 82.7778 23.5714C83.7952 24.1964 84.9434 24.5089 86.2224 24.5089C88.2139 24.5089 89.7327 23.8393 90.7793 22.5L95.2922 25.6473ZM90.1904 16.9643L81.1643 16.9643C81.397 15.8036 81.9783 14.8958 82.9084 14.2411C83.8098 13.5863 84.7834 13.2738 85.8301 13.3036C86.8765 13.3333 87.8286 13.6607 88.686 14.2857C89.5437 14.9107 90.0452 15.8036 90.1904 16.9643ZM113.088 29.2188C111.911 29.7247 110.785 29.9628 109.709 29.933C106.846 29.933 104.36 28.9062 102.253 26.8527Q101.243 25.8691 100.556 24.6966Q99.0913 22.1972 99.0913 18.8393C99.0913 15.5506 100.181 12.8795 102.362 10.8259C104.542 8.77232 106.991 7.7381 109.709 7.72321Q111.366 7.72321 113.11 8.45982C114.273 8.95089 115.167 9.6503 115.792 10.558L115.792 8.19196L121.94 8.19196L121.94 29.5312L115.792 29.5312L115.792 27.0982C115.167 28.006 114.266 28.7128 113.088 29.2188ZM110.712 23.9062C109.302 23.9062 108.088 23.4301 107.071 22.4777C106.024 21.5253 105.501 20.3199 105.501 18.8616C105.501 17.4182 106.024 16.2054 107.071 15.2232C108.205 14.256 109.447 13.7723 110.799 13.7723Q111.758 13.7723 112.594 14.0916Q113.528 14.4476 114.309 15.2009C115.298 16.1533 115.792 17.3735 115.792 18.8616C115.792 20.3497 115.298 21.5625 114.309 22.5C113.321 23.4375 112.122 23.9062 110.712 23.9062ZM133.522 18.2366L133.522 29.5312L127.309 29.5312L127.309 8.19196L133.522 8.19196L133.522 11.2946C134.031 10.1935 134.758 9.32291 135.703 8.68304C136.72 8.07291 137.81 7.76786 138.973 7.76786C142.272 7.76786 144.504 9.01785 145.666 11.5179C147.193 8.9881 149.264 7.72321 151.88 7.72321C154.496 7.72321 156.495 8.56399 157.876 10.2455C159.257 11.9271 159.947 14.3155 159.947 17.4107L159.947 29.5312L153.799 29.5312L153.799 18.1473C153.799 16.8378 153.486 15.8036 152.861 15.0446Q152.451 14.5691 151.935 14.2922Q151.215 13.9062 150.289 13.9062C149.228 13.9062 148.377 14.2634 147.738 14.9777Q146.778 16.0491 146.778 18.2366L146.778 29.5312L140.565 29.5312L140.565 18.0134Q140.478 16.0938 139.54 15Q139.127 14.5297 138.61 14.2617Q137.924 13.9062 137.054 13.9062C136.037 13.9062 135.194 14.256 134.525 14.9554C133.857 15.6548 133.522 16.7485 133.522 18.2366Z" clip-rule="evenodd" fill="#FFFFFF" fill-opacity="1.000000" fill-rule="evenodd"/>
</svg>
